<svg xmlns="http://www.w3.org/2000/svg" version="1.1" xmlns:xlink="http://www.w3.org/1999/xlink" width="512" height="512" x="0" y="0" viewBox="0 0 24 24" style="enable-background:new 0 0 512 512" xml:space="preserve" className=""><g><path d="M21.25 0H2.75A2.752 2.752 0 0 0 0 2.75v18.5A2.752 2.752 0 0 0 2.75 24h18.5A2.752 2.752 0 0 0 24 21.25V2.75A2.752 2.752 0 0 0 21.25 0zM12 5a1 1 0 1 1 0 2 1 1 0 0 1 0-2zm2.25 14h-4.5a1 1 0 0 1 0-2H11v-6h-.75a1 1 0 0 1 0-2H12a1 1 0 0 1 1 1v7h1.25a1 1 0 0 1 0 2z" fill="#b1b1b1" opacity="1" data-original="#000000" className=""></path></g></svg>