<svg xmlns="http://www.w3.org/2000/svg" version="1.1" xmlns:xlink="http://www.w3.org/1999/xlink" width="512" height="512" x="0" y="0" viewBox="0 0 100 100" style="enable-background:new 0 0 512 512" xml:space="preserve" className=""><g><path d="M90 51.93h-5V24.94c0-4.96-5.72-7.78-9.7-4.78l-7.07 5.31C62.92 22.6 56.68 20.93 50 20.93s-12.92 1.66-18.23 4.54l-7.07-5.31c-3.99-2.99-9.7-.18-9.7 4.78v26.99h-5c-.55 0-1 .45-1 1s.45 1 1 1h5.08c.1 1.38.3 2.73.59 4.05l-4.76 1.28c-.53.14-.85.69-.71 1.22.12.45.52.74.96.74.09 0 .17-.01.26-.03l4.75-1.27c.46 1.54 1.06 3.03 1.77 4.47l-3.78 2.18c-.48.28-.64.89-.37 1.37.19.32.52.5.87.5.17 0 .34-.04.5-.13l3.73-2.15c5.82 9.97 17.56 16.79 31.1 16.79s25.28-6.82 31.1-16.79l3.73 2.15c.16.09.33.13.5.13a1.002 1.002 0 0 0 .5-1.87l-3.78-2.18c.71-1.44 1.31-2.93 1.77-4.47l4.75 1.27c.09.02.17.03.26.03.44 0 .85-.29.96-.74a.994.994 0 0 0-.71-1.22l-4.76-1.28c.3-1.32.49-2.68.59-4.05H90c.55 0 1-.45 1-1s-.45-1-1-1zM20.9 34.71l-.01-9.81.02-.01 5.51 4.13c-2.09 1.69-3.95 3.6-5.52 5.69zm6.57 9.79h10c0 1.66 1.34 3 3 3s3-1.34 3-3h2c0 3.59-4.03 6.5-9 6.5s-9-2.91-9-6.5zm29.42 17.61a1.007 1.007 0 0 1-1.35.44L50 59.78l-5.55 2.78a.993.993 0 0 1-1.34-.45.993.993 0 0 1 .45-1.34L49 58.05V55.3a4.957 4.957 0 0 1-2.76-1.6l-.33-.38c-1.14-1.3-.22-3.32 1.5-3.32h5.18c1.72 0 2.64 2.02 1.51 3.32l-.33.38c-.75.86-1.73 1.39-2.76 1.6v2.74l5.45 2.72c.48.26.68.86.43 1.35zM63.53 51c-4.97 0-9-2.91-9-6.5h10c0 1.66 1.34 3 3 3s3-1.34 3-3h2c0 3.59-4.03 6.5-9 6.5zm15.55-26.11v9.79a32.039 32.039 0 0 0-5.51-5.66z" fill="#514a92" opacity="1" data-original="#514a92" className=""></path></g></svg>