<svg xmlns="http://www.w3.org/2000/svg" version="1.1" xmlns:xlink="http://www.w3.org/1999/xlink" width="512" height="512" x="0" y="0" viewBox="0 0 479.955 479.955" style="enable-background:new 0 0 512 512" xml:space="preserve" class=""><g><path d="M298.324 358.67a7.999 7.999 0 0 0-10.671-3.759 8 8 0 0 0-3.759 10.671c4.003 8.358 9.492 15.004 15.974 20.465-24.575 28.526-65.619 36.284-98.588 17.619a8 8 0 1 0-7.882 13.924c40.448 22.899 90.565 12.736 119.777-22.511 42.129 23.348 101.646 19.351 101.61 76.871a8.001 8.001 0 0 0 16 .01c.053-87.877-108.563-63.394-132.461-113.29z" fill="#ffffff" opacity="1" data-original="#000000" class=""></path><path d="M365.402 233.585h5.771c43.522 0 43.531-86.203 0-86.203h-19.487c-11.165-14.509-27.739-22.375-47.636-22.375H176.295c-17.716 0-32.836 6.254-43.972 18.12 5.389-19.475 23.281-33.821 44.477-33.821h126.74c10.644 0 21.028 3.704 29.24 10.429a8 8 0 0 0 10.137-12.379c-11.062-9.06-25.047-14.05-39.377-14.05H176.8c-31.552 0-57.669 23.615-61.613 54.076-5.847 0-9.307-.264-14.172 1.168V99.769c.008-13.231 10.758-23.994 24.106-23.994a8 8 0 0 0 7.425-5.021c39.317-97.984 183.942-34.139 239.95-37.28 20.789-1.138 32.54 22.478 20.412 38.896-9.38 12.697-13.492 12.914-13.492 18.537v39.597a8 8 0 0 0 16 0V94.145c3.899-4.111 7.376-8.228 10.361-12.268 20.366-27.57-.217-66.278-34.175-64.377-51.94 2.898-204.422-62.594-251.921 42.637-19.183 2.574-34.654 19.007-34.667 39.628v60.659c-17.168 24.479-8.183 73.16 24.156 73.16h19.663c10.339 13.308 26.243 22.383 47.461 22.383 139.68 0 131.102.094 135.781-.46 4.388-.519 7.541-4.468 7.039-8.857-.503-4.391-4.476-7.558-8.857-7.039-3.898.462 2.54.353-133.963.353-60.868 0-60.871-98.955 0-98.955H304.05c44.295 0 55.897 51.581 36.859 80.14-3.536 5.305.271 12.438 6.656 12.438h1.809c-7.985 118.747-169.17 130.314-209.401 38.264a8 8 0 1 0-14.66 6.407c11.813 27.031 32.959 47.898 61.459 60.03-5.387 77.967-137.539 34.894-137.601 133.435a8.001 8.001 0 0 0 16 .01c.053-82.824 126.936-40.886 137.18-127.948 74.56 21.137 157.596-20.946 163.051-110.2zm-256.231-16.002c-22.062 0-22.218-54.201 0-54.201h10.479c-6.457 16.464-6.903 36.476.112 54.201zm251.49-54.201h10.512c22.111 0 22.086 54.203 0 54.203h-10.531c6.581-16.961 6.675-37.109.019-54.203z" fill="#ffffff" opacity="1" data-original="#000000" class=""></path><path d="M274.11 280.733a8 8 0 0 0-11.257-11.369c-11.885 11.77-33.517 11.772-45.386.004a8 8 0 0 0-11.265 11.361c18.077 17.928 49.812 17.926 67.908.004zM209.432 159.962a8 8 0 0 0 0 16h61.481a8 8 0 0 0 0-16z" fill="#ffffff" opacity="1" data-original="#000000" class=""></path></g></svg>