<svg xmlns="http://www.w3.org/2000/svg" version="1.1" xmlns:xlink="http://www.w3.org/1999/xlink" width="512" height="512" x="0" y="0" viewBox="0 0 512 512" style="enable-background:new 0 0 512 512" xml:space="preserve" className=""><g><path d="M490.54 5.679a9.508 9.508 0 0 0-9.382-5.655c-27.278 1.99-122.88 11.589-207.817 51.512a18.91 18.91 0 0 0-8.405 7.784l-29.846 52.244a204.79 204.79 0 0 1 1.079-21.473c.382-3.707-1.364-7.201-4.556-9.119-3.182-1.912-7.075-1.813-10.156.256-35.437 23.792-72.702 50.235-105.142 82.354a7.371 7.371 0 0 0 10.372 10.476c28.852-28.566 61.898-52.701 93.966-74.499-.738 14.068.033 25.168.656 31.169a9.459 9.459 0 0 0 7.479 8.302 9.475 9.475 0 0 0 10.209-4.584l38.74-67.813a4.243 4.243 0 0 1 1.877-1.755c70.98-33.363 149.849-44.977 187.572-48.822l-24.467 22.96a7.371 7.371 0 0 0 10.088 10.75l35.534-33.346a9.516 9.516 0 0 0 2.199-10.741z" fill="#ffffff" opacity="1" data-original="#000000" className=""></path><path d="M330.185 262.741a241.911 241.911 0 0 0 21.986-47.747l12.599-37.693c12.827-38.378 34.46-74.054 62.56-103.17a7.37 7.37 0 1 0-10.607-10.237c-29.616 30.687-52.416 68.287-65.935 108.734l-12.599 37.693a227.154 227.154 0 0 1-20.642 44.831 1.069 1.069 0 0 1-.667.463L203.114 283.92c-4.195 1.045-7.09 4.65-7.203 8.972-.113 4.315 2.585 8.06 6.713 9.321 11.525 3.518 34.306 9.138 65.536 10.499a226.364 226.364 0 0 1-101.319 48.215l-80.653 15.836a676.515 676.515 0 0 1 22.251-42.428h35.381a7.37 7.37 0 1 0 0-14.742h-26.725a658.935 658.935 0 0 1 59.461-83.018c22.592-26.794 47.192-52.015 73.383-75.303h37.979a7.37 7.37 0 1 0 0-14.742h-20.904a741.328 741.328 0 0 1 71.356-52.825 7.372 7.372 0 0 0-8.043-12.355c-55.706 36.271-106.551 79.851-150.874 129.405v-22.082a7.37 7.37 0 1 0-14.742 0v39.078c-37.283 44.453-68.682 93.594-93.79 146.756-7.905-12.448-20.891-39.04-16.738-74.777l19.68 16.956a8.44 8.44 0 0 0 10.783.187 8.42 8.42 0 0 0 2.159-10.541c-7.227-13.494-11.202-36.147-11.496-65.509a3.271 3.271 0 0 1 .398-1.642c7.731-13.678 17.255-27.321 28.308-40.549a7.371 7.371 0 0 0-11.312-9.452c-11.624 13.912-21.661 28.295-29.828 42.747-1.541 2.725-2.338 5.852-2.306 9.044.192 19.204 1.855 35.611 4.964 49.08l-8.887-7.657a9.524 9.524 0 0 0-9.314-1.772 9.539 9.539 0 0 0-6.214 7.185c-10.681 55.472 15.457 93.118 22.693 102.253-12.556 27.356-31.891 83.132-42.695 112.015a7.37 7.37 0 0 0 4.384 9.457c2.899 1.209 5.662-.173 8.181-1.516l59.873-34.485c23.104-13.307 51.418-12.663 73.893 1.681l26.981 17.22a74.672 74.672 0 0 0 60.967 8.769l43.766-12.697c11.357-3.294 23.664-2.706 34.655 1.657a7.37 7.37 0 1 0 5.439-13.701c-14.019-5.565-29.717-6.316-44.201-2.114l-43.766 12.697a59.913 59.913 0 0 1-48.928-7.038l-26.981-17.22c-27.124-17.311-61.297-18.089-89.181-2.029l-44.327 25.531c.92-2.486 20.057-54.801 20.251-55.159h109.095c11.185.119 12.313-16.73 1.371-18.461-10.344-3.289-20.114-6.395-34.644-22.893a60.877 60.877 0 0 0-9.012-8.384l40.751-8.002c44.413-8.721 85.377-29.7 118.464-60.67a9.452 9.452 0 0 0 2.348-10.423 9.46 9.46 0 0 0-8.833-6.025c-22.253-.038-40.689-2.437-54.463-5.155l93.242-23.198c4.058-1.006 7.611-3.623 9.744-7.176zM105.542 388.235c8.179 2.026 15.358 6.496 21.338 13.285 6.817 7.741 12.935 13.054 18.535 16.87H67.853c3.4-8.46 6.954-16.827 10.661-25.098.485.139 26.615-5.681 27.028-5.057zM477.814 497.244h-92.78c-6.264 0-12.4-1.153-18.236-3.425a7.371 7.371 0 0 0-5.349 13.737 64.732 64.732 0 0 0 23.585 4.43h92.78a7.37 7.37 0 1 0 0-14.742z" fill="#ffffff" opacity="1" data-original="#000000" className=""></path></g></svg>