<svg xmlns="http://www.w3.org/2000/svg" version="1.1" xmlns:xlink="http://www.w3.org/1999/xlink" width="512" height="512" x="0" y="0" viewBox="0 0 512.001 512" style="enable-background:new 0 0 512 512" xml:space="preserve" className=""><g><path d="M255.836 503c-13.79 0-26.563-6.223-35.063-17.09l-51.14-64.855L79.988 421C35.887 421 0 385.113 0 341V80C0 35.887 35.887 0 80 0h352c44.113 0 80 35.887 80 80v161c0 11.047-8.953 20-20 20s-20-8.953-20-20V80c0-22.055-17.945-40-40-40H80c-22.055 0-40 17.945-40 40v261c0 22.055 17.945 40 40 40l99.352.059a20.002 20.002 0 0 1 15.691 7.617l57.191 72.527c1.168 1.496 2.594 1.797 3.606 1.797h.02c1.007-.004 2.445-.312 3.562-1.762.035-.047.07-.093.105-.136l56.727-72.434A20.005 20.005 0 0 1 332 381h100c22.059 0 40-17.945 40-40 0-11.047 8.953-20 20-20s20 8.953 20 20c0 44.113-35.887 80-80 80h-90.258l-50.68 64.707c-8.453 10.938-21.218 17.238-35.046 17.293h-.18zM276 305V197c0-11.047-8.953-20-20-20s-20 8.953-20 20v108c0 11.047 8.953 20 20 20s20-8.953 20-20zm-20-197c-11.047 0-20 8.953-20 20s8.953 20 20 20 20-8.953 20-20-8.953-20-20-20zm0 0" fill="#b1b1b1" opacity="1" data-original="#000000" className=""></path></g></svg>