<svg xmlns="http://www.w3.org/2000/svg" version="1.1" xmlns:xlink="http://www.w3.org/1999/xlink" width="512" height="512" x="0" y="0" viewBox="0 0 512 512" style="enable-background:new 0 0 512 512" xml:space="preserve" class=""><g><path d="M462.69 49.31a168.39 168.39 0 0 0-274.06 184.87A1971.75 1971.75 0 0 0 9 413c-6.5 7.33-9.63 17.5-8.89 27.87q1.69 23.81 2.53 46.72a22.35 22.35 0 0 0 21.78 21.78c15.24.52 30.84 1.4 46.71 2.52 10.37.74 20.54-2.4 27.91-8.91q5.26-4.65 10.49-9.33a14.8 14.8 0 0 0 4.82-9.13q1.75-12.9 3.27-26.06c1.55-13.4 13.7-22.15 27.83-19.57 25.93 4.78 46.33-15.1 41.65-41v-.2c-2.52-14.12 6.33-26.2 19.91-27.54q13.14-1.31 26.13-2.76a14.85 14.85 0 0 0 9.35-4.68q17.94-19.41 35.36-39.32A168.39 168.39 0 0 0 462.69 49.31zM419 158.86A46.56 46.56 0 1 1 419 93a46.56 46.56 0 0 1 0 65.86z" data-name="Layer 16" fill="#b1b1b1" opacity="1" data-original="#000000" class=""></path></g></svg>