<svg xmlns="http://www.w3.org/2000/svg" version="1.1" xmlns:xlink="http://www.w3.org/1999/xlink" width="512" height="512" x="0" y="0" viewBox="0 0 511.999 511.999" style="enable-background:new 0 0 512 512" xml:space="preserve" class=""><g><path d="M86.035 73.661a7.57 7.57 0 0 0-7.57 7.57v20.06a7.57 7.57 0 0 0 7.57 7.57 7.57 7.57 0 0 0 7.57-7.57v-20.06a7.57 7.57 0 0 0-7.57-7.57zM86.035 127.669a7.57 7.57 0 0 0-7.57 7.57v20.06a7.57 7.57 0 0 0 7.57 7.57 7.57 7.57 0 0 0 7.57-7.57v-20.06a7.57 7.57 0 0 0-7.57-7.57zM123.068 110.695h-20.06a7.57 7.57 0 1 0 0 15.14h20.06a7.57 7.57 0 1 0 0-15.14zM69.061 110.695h-20.06a7.57 7.57 0 1 0 0 15.14h20.06a7.57 7.57 0 1 0 0-15.14zM468.445 291.972l-51.462-53.353h-.001l-.009-.01-.019-.016a7.545 7.545 0 0 0-2.886-1.858l-44.484-15.866a7.567 7.567 0 0 0-9.672 4.586 7.569 7.569 0 0 0 4.586 9.672l24.492 8.736-125.472 44.749-125.472-44.749 25.203-8.989a7.569 7.569 0 1 0-5.086-14.258l-45.194 16.119a7.572 7.572 0 0 0-2.886 1.858l-.019.016-.009.01h-.001l-51.462 53.353a7.569 7.569 0 0 0 2.905 12.385l90.612 32.318c.841.3 1.699.442 2.543.442a7.572 7.572 0 0 0 7.13-5.028 7.569 7.569 0 0 0-4.586-9.672L77.633 294.04l39.937-41.403 132.355 47.205-39.937 41.403-25.678-9.158a7.567 7.567 0 0 0-9.672 4.586 7.569 7.569 0 0 0 4.586 9.672l30.279 10.799a7.566 7.566 0 0 0 7.991-1.874l46.025-47.715 46.025 47.715a7.57 7.57 0 0 0 7.99 1.873l148.006-52.787c2.421-.863 4.239-2.898 4.827-5.401s-.136-5.132-1.922-6.983zm-151.396 49.271-39.937-41.403 132.355-47.205 39.937 41.403-132.355 47.205zM349.977 473.594a7.572 7.572 0 0 0-9.673-4.586l-76.782 27.385-140.437-50.088V343.049a7.57 7.57 0 1 0-15.14 0v108.593a7.57 7.57 0 0 0 5.026 7.13l148.007 52.788a7.556 7.556 0 0 0 5.087 0l79.326-28.292a7.57 7.57 0 0 0 4.586-9.674zM411.528 335.479a7.57 7.57 0 0 0-7.57 7.57v103.257l-34.494 12.303a7.569 7.569 0 0 0-4.586 9.672 7.57 7.57 0 0 0 9.674 4.586l39.52-14.095a7.569 7.569 0 0 0 5.026-7.13V343.049a7.57 7.57 0 0 0-7.57-7.57z" fill="#ffffff" opacity="1" data-original="#000000" class=""></path><path d="M263.521 335.075a7.57 7.57 0 0 0-7.57 7.57v128.682a7.57 7.57 0 1 0 15.14 0V342.645a7.57 7.57 0 0 0-7.57-7.57zM425.59 85.882l-14.353-2.91a28.296 28.296 0 0 1-22.15-22.15l-2.91-14.353c-1.331-6.563-6.938-11.147-13.635-11.147s-12.304 4.584-13.635 11.148l-2.91 14.352a28.295 28.295 0 0 1-22.15 22.15l-14.353 2.91c-6.564 1.33-11.147 6.937-11.147 13.634 0 6.698 4.583 12.305 11.147 13.635l14.353 2.91a28.295 28.295 0 0 1 22.15 22.15l2.91 14.353c1.331 6.563 6.938 11.147 13.635 11.147s12.304-4.584 13.635-11.148l2.91-14.352a28.295 28.295 0 0 1 22.15-22.15l14.353-2.91c6.564-1.33 11.147-6.937 11.147-13.635 0-6.697-4.584-12.303-11.147-13.634zm-17.362 15.341a43.408 43.408 0 0 0-33.98 33.98l-1.706 8.416-1.706-8.416a43.406 43.406 0 0 0-33.98-33.98l-8.416-1.706 8.416-1.706a43.41 43.41 0 0 0 33.98-33.98l1.706-8.416 1.706 8.416a43.41 43.41 0 0 0 33.98 33.98l8.416 1.706-8.416 1.706zM273.662 64.842l-18.418-3.734a38.453 38.453 0 0 1-30.101-30.101l-3.734-18.418C219.905 5.176 213.575 0 206.013 0c-7.562 0-13.893 5.176-15.395 12.587l-3.734 18.418a38.453 38.453 0 0 1-30.101 30.101l-18.418 3.734c-7.411 1.503-12.587 7.833-12.587 15.395s5.176 13.893 12.587 15.396l18.418 3.734a38.453 38.453 0 0 1 30.101 30.101l3.734 18.418c1.503 7.411 7.833 12.587 15.395 12.587 7.562 0 13.893-5.176 15.395-12.587l3.734-18.418a38.454 38.454 0 0 1 30.101-30.101l18.418-3.734c7.411-1.503 12.587-7.833 12.587-15.395s-5.175-13.892-12.586-15.394zm-3.01 15.951-18.418 3.734a53.564 53.564 0 0 0-41.93 41.93l-3.734 18.418c-.067.332-.092.456-.557.456-.465 0-.491-.124-.557-.456l-3.734-18.418a53.564 53.564 0 0 0-41.93-41.93l-18.418-3.734c-.332-.067-.456-.092-.456-.557 0-.465.125-.491.456-.557l18.418-3.734a53.564 53.564 0 0 0 41.93-41.93l3.734-18.418c.067-.332.092-.456.557-.456.465 0 .491.124.557.456l3.734 18.418a53.564 53.564 0 0 0 41.93 41.93l18.418 3.734c.332.067.456.092.456.557 0 .465-.124.491-.456.557zM211.133 239.878c-20.053-49.359-64.95-93.104-66.85-94.942a7.57 7.57 0 0 0-10.524 10.884c.443.429 44.519 43.409 63.348 89.756a7.574 7.574 0 0 0 7.016 4.723 7.571 7.571 0 0 0 7.01-10.421zM238.434 145.836a7.57 7.57 0 0 0-7.57 7.57v69.64a7.57 7.57 0 1 0 15.14 0v-69.64a7.571 7.571 0 0 0-7.57-7.57zM369.345 172.506a7.568 7.568 0 0 0-10.647 1.11c-18.804 23.182-32.619 45.476-41.064 66.261a7.57 7.57 0 1 0 14.026 5.697c9.817-24.163 26.515-47.283 38.795-62.422a7.569 7.569 0 0 0-1.11-10.646zM303.498 121.676a7.567 7.567 0 0 0-8.481 6.532l-12.192 93.863a7.57 7.57 0 0 0 15.013 1.949l12.192-93.863a7.569 7.569 0 0 0-6.532-8.481z" fill="#ffffff" opacity="1" data-original="#000000" class=""></path></g></svg>