<svg xmlns="http://www.w3.org/2000/svg" version="1.1" xmlns:xlink="http://www.w3.org/1999/xlink" width="512" height="512" x="0" y="0" viewBox="0 0 64 64" style="enable-background:new 0 0 512 512" xml:space="preserve" className=""><g><path d="M45.875 26.343c-2.597-5.837-10.53-17.507-17.404-14.474a5.897 5.897 0 0 0-1.211 1.001L14.04 31.26a2.943 2.943 0 0 1 1.62 1.17c.05.07 5.98 10.46 6 10.54a2.969 2.969 0 0 1 .18 1.99l22.57-1.97c5.376-1.284 4.938-8.672 1.465-16.647zm-11.68-11.736C41.557 18.84 50.132 36.83 44.89 40.72c-2.183 1.239-6.955-1.581-11.15-7.545-2.852-3.96-5.362-9.71-5.758-13.83-.65-5.365 1.763-7.678 6.213-4.738zM19.9 44.48a1.004 1.004 0 0 0-.09-.76l-5.74-10.08a.996.996 0 0 0-1.36-.37l-5.27 3c-7.689 4.715-1.203 16.009 6.73 11.81l5.26-3a.978.978 0 0 0 .47-.6zM20.88 46.5c-.293.25-4.182 2.447-4.99 2.91l4.7 5.79a2.853 2.853 0 0 0 4.42-3.61zM49.48 21.161a1 1 0 0 1-.496-1.869l5.989-3.409a1 1 0 0 1 .99 1.739l-5.988 3.408a.996.996 0 0 1-.495.131zM45.153 15.527a1 1 0 0 1-.837-1.546l3.762-5.773A1 1 0 0 1 49.754 9.3l-3.762 5.773a.998.998 0 0 1-.839.454zM52.114 27.756a1 1 0 0 1-.04-1.999l6.884-.286a1.013 1.013 0 0 1 1.041.957 1 1 0 0 1-.957 1.04l-6.885.287z" fill="#514a92" opacity="1" data-original="#514a92" className=""></path><path d="M37.55 31.463a1 1 0 0 1-.495-1.869l.836-.476a2.266 2.266 0 0 0 1.074-1.382 2.275 2.275 0 0 0-3.323-2.571l-.838.476a1 1 0 1 1-.989-1.739l.837-.476a4.274 4.274 0 1 1 4.228 7.43l-.835.477a.996.996 0 0 1-.494.13z" fill="#514a92" opacity="1" data-original="#514a92" className=""></path></g></svg>