<svg xmlns="http://www.w3.org/2000/svg" version="1.1" xmlns:xlink="http://www.w3.org/1999/xlink" width="512" height="512" x="0" y="0" viewBox="0 0 512 512" style="enable-background:new 0 0 512 512" xml:space="preserve" className=""><g><path d="M466.824 184.36v244.817c0 16.633-13.484 30.118-30.118 30.118H30.118C13.484 459.295 0 445.811 0 429.177V143.059c0-16.634 13.484-30.118 30.118-30.118h335.17l-63.733 63.733a52.706 52.706 0 0 0-15.437 37.269v19.469c0 24.95 20.226 45.176 45.176 45.176h19.47a52.706 52.706 0 0 0 37.268-15.437l78.792-78.791zM97.882 414.152c0-24.505.833-47.663 2.477-68.972 34.134-14.322 62.98-34.812 81.716-58.045 30.18-37.423 29.086-77.885-9.693-97.275-38.818-19.409-68.467 3.982-85.053 54.925-6.937 21.307-12.018 48.069-15.261 78.889a246.031 246.031 0 0 1-29.844 7.948c-8.155 1.631-13.444 9.564-11.813 17.72 1.631 8.155 9.565 13.444 17.72 11.813a276.032 276.032 0 0 0 21.294-5.146c-1.107 18.372-1.659 37.832-1.659 58.145 0 8.317 6.742 15.059 15.059 15.059 8.315-.002 15.057-6.744 15.057-15.061zm86.627-50.318 30.596-34.966 1.388 11.105c1.547 12.379 12.837 21.159 25.216 19.612a22.59 22.59 0 0 0 13.596-6.878l14.01-14.787 8.929 12.732a22.588 22.588 0 0 0 24.677 8.755l55.085-15.681c7.999-2.277 12.638-10.608 10.361-18.606-2.277-7.999-10.607-12.638-18.606-10.361l-49.934 14.214-11.146-15.892a22.665 22.665 0 0 0-2.957-3.427c-9.056-8.58-23.353-8.194-31.933.862l-9.388 9.909-1.494-11.95a22.588 22.588 0 0 0-7.539-14.198c-9.389-8.215-23.659-7.264-31.874 2.125l-41.65 47.601c-5.477 6.259-4.842 15.773 1.416 21.249 6.257 5.475 15.771 4.841 21.247-1.418zM439.824 80.996l23.88-23.88c5.88-5.881 15.415-5.881 21.296 0l22.588 22.588c5.881 5.881 5.881 15.416 0 21.296l-23.88 23.88-43.884-43.884zM158.631 268.229c-12.765 15.829-31.783 30.483-54.633 42.106 2.949-21.814 6.949-40.81 11.968-56.226 11.682-35.88 24.92-46.324 42.947-37.311 18.722 9.361 19.206 27.266-.282 51.431zm208.105-26.375a22.59 22.59 0 0 1-15.972 6.616h-19.47c-8.317 0-15.059-6.742-15.059-15.059v-19.469c0-5.991 2.38-11.736 6.616-15.972l95.677-95.677 43.884 43.885-95.676 95.676z" fill="#b1b1b1" opacity="1" data-original="#000000" className=""></path></g></svg>