<svg xmlns="http://www.w3.org/2000/svg" version="1.1" xmlns:xlink="http://www.w3.org/1999/xlink" width="512" height="512" x="0" y="0" viewBox="0 0 32 32" style="enable-background:new 0 0 512 512" xml:space="preserve" class=""><g><path d="M25.9 12H25V9.97C24.995 5.042 20.94.997 16.03 1c-4.933.003-8.994 4.09-8.96 9.04V12H6.1C4.39 12 3 13.42 3 15.18v12.64C3 29.58 4.39 31 6.1 31h19.8c1.71 0 3.1-1.42 3.1-3.18V15.18c0-1.76-1.39-3.18-3.1-3.18zM17 21.79V24c0 .55-.45 1-1 1s-1-.45-1-1v-2.21c-.88-.39-1.5-1.27-1.5-2.29a2.5 2.5 0 0 1 5 0c0 1.02-.62 1.9-1.5 2.29zM21 12h-9.93v-1.99c-.02-2.742 2.227-5.007 4.96-5.01 2.721-.003 4.969 2.24 4.97 4.97z" fill="#b1b1b1" opacity="1" data-original="#000000" class=""></path></g></svg>