<svg xmlns="http://www.w3.org/2000/svg" version="1.1" xmlns:xlink="http://www.w3.org/1999/xlink" width="512" height="512" x="0" y="0" viewBox="0 0 60 60" style="enable-background:new 0 0 512 512" xml:space="preserve" className=""><g><g fill="#000" fill-rule="nonzero"><path d="M3 49h5v6a5.006 5.006 0 0 0 5 5h34a5.006 5.006 0 0 0 5-5v-6h5a3 3 0 0 0 3-3V36a3 3 0 0 0-3-3h-5v-6a5.006 5.006 0 0 0-5-5v-5c0-9.389-7.611-17-17-17S13 7.611 13 17v5a5.006 5.006 0 0 0-5 5v6H3a3 3 0 0 0-3 3v10a3 3 0 0 0 3 3zm47 6a3 3 0 0 1-3 3H13a3 3 0 0 1-3-3v-6h40zM15 17c0-8.284 6.716-15 15-15s15 6.716 15 15v5h-4v-5c0-6.075-4.925-11-11-11s-11 4.925-11 11v5h-4zm6 5v-5a9 9 0 0 1 18 0v5zm-11 5a3 3 0 0 1 3-3h34a3 3 0 0 1 3 3v6H10zm-8 9a1 1 0 0 1 1-1h54a1 1 0 0 1 1 1v10a1 1 0 0 1-1 1H3a1 1 0 0 1-1-1z" fill="#b1b1b1" opacity="1" data-original="#000000" className=""></path><path d="M4.168 43.555a1 1 0 0 0 1.387.277L7 42.868V44a1 1 0 0 0 2 0v-1.132l1.445.964a1 1 0 0 0 1.11-1.664L9.8 41l1.752-1.168a1 1 0 1 0-1.11-1.664L9 39.132V38a1 1 0 0 0-2 0v1.132l-1.445-.964a1 1 0 0 0-1.11 1.664L6.2 41l-1.755 1.168a1 1 0 0 0-.277 1.387zM15.168 43.555a1 1 0 0 0 1.387.277L18 42.868V44a1 1 0 0 0 2 0v-1.132l1.445.964a1 1 0 0 0 1.11-1.664L20.8 41l1.752-1.168a1 1 0 1 0-1.11-1.664L20 39.132V38a1 1 0 0 0-2 0v1.132l-1.445-.964a1 1 0 0 0-1.11 1.664L17.2 41l-1.752 1.168a1 1 0 0 0-.28 1.387zM37.168 43.555a1 1 0 0 0 1.387.277L40 42.868V44a1 1 0 0 0 2 0v-1.132l1.445.964a1 1 0 0 0 1.11-1.664L42.8 41l1.752-1.168a1 1 0 1 0-1.11-1.664L42 39.132V38a1 1 0 0 0-2 0v1.132l-1.445-.964a1 1 0 0 0-1.11 1.664L39.2 41l-1.752 1.168a1 1 0 0 0-.28 1.387zM26.168 43.555a1 1 0 0 0 1.387.277L29 42.868V44a1 1 0 0 0 2 0v-1.132l1.445.964a1 1 0 0 0 1.11-1.664L31.8 41l1.752-1.168a1 1 0 1 0-1.11-1.664L31 39.132V38a1 1 0 0 0-2 0v1.132l-1.445-.964a1 1 0 0 0-1.11 1.664L28.2 41l-1.752 1.168a1 1 0 0 0-.28 1.387zM16 26h-3a1 1 0 0 0-1 1v3a1 1 0 0 0 2 0v-2h2a1 1 0 0 0 0-2zM49 45h6a1 1 0 0 0 0-2h-6a1 1 0 0 0 0 2z" fill="#b1b1b1" opacity="1" data-original="#000000" className=""></path></g></g></svg>