<svg xmlns="http://www.w3.org/2000/svg" version="1.1" xmlns:xlink="http://www.w3.org/1999/xlink" width="512" height="512" x="0" y="0" viewBox="0 0 24 24" style="enable-background:new 0 0 512 512" xml:space="preserve" fill-rule="evenodd" class=""><g><path d="m16.634 11.366-3.882 6.724c-.155.269-.246.57-.264.88l-.134 2.232a2 2 0 0 0 3.098 1.789l1.866-1.232c.259-.171.475-.4.63-.669l3.882-6.724a2 2 0 0 0-.732-2.732l-1.732-1a2 2 0 0 0-2.732.732zM20 7.981V5a3 3 0 0 0-3-3H7c-.796 0-1.559.316-2.121.879A2.996 2.996 0 0 0 4 5v14a3 3 0 0 0 3 3h2.94a1 1 0 0 0 0-2H7a1 1 0 0 1-1-1V5a.997.997 0 0 1 1-1h10a1 1 0 0 1 1 1v2.981a1 1 0 0 0 2 0zm-1.634 4.385 1.732 1-3.882 6.724-1.866 1.232.134-2.232zM9 17h2.175a1 1 0 0 0 0-2H9a1 1 0 0 0 0 2zm0-4h4.35a1 1 0 0 0 0-2H9a1 1 0 0 0 0 2zm0-4h6a1 1 0 0 0 0-2H9a1 1 0 0 0 0 2z" fill="#000000" opacity="1" data-original="#000000" class=""></path></g></svg>