<svg xmlns="http://www.w3.org/2000/svg" version="1.1" xmlns:xlink="http://www.w3.org/1999/xlink" width="512" height="512" x="0" y="0" viewBox="0 0 512 512" style="enable-background:new 0 0 512 512" xml:space="preserve" className=""><g><path d="M416 149.333c12.865 0 25.719 2.802 38.208 8.323a10.627 10.627 0 0 0 10.333-.948 10.672 10.672 0 0 0 4.635-9.281c-1.021-22.854-19.698-40.76-42.51-40.76h-384C19.135 106.667 0 125.802 0 149.333V256c0 23.531 19.135 42.667 42.667 42.667H288A10.66 10.66 0 0 0 298.667 288v-10.667c0-13.646 6.74-26.604 18.01-34.667a10.65 10.65 0 0 0 4.406-7.531c5.261-48.916 46.073-85.802 94.917-85.802zM98.479 204.094c5.104 2.948 6.854 9.469 3.906 14.573a10.678 10.678 0 0 1-14.573 3.906l-2.479-1.431V224a10.66 10.66 0 0 1-10.667 10.667A10.66 10.66 0 0 1 64 224v-2.858l-2.479 1.431a10.679 10.679 0 0 1-14.573-3.906c-2.948-5.104-1.198-11.625 3.906-14.573l2.473-1.427-2.473-1.427c-5.104-2.948-6.854-9.469-3.906-14.573 2.948-5.104 9.479-6.854 14.573-3.906l2.479 1.43v-2.858a10.66 10.66 0 0 1 10.667-10.667 10.66 10.66 0 0 1 10.667 10.667v2.858l2.479-1.431c5.063-2.948 11.615-1.198 14.573 3.906 2.948 5.104 1.198 11.625-3.906 14.573l-2.473 1.427 2.472 1.428zm85.334 0c5.104 2.948 6.854 9.469 3.906 14.573a10.678 10.678 0 0 1-14.573 3.906l-2.479-1.431V224c0 5.896-4.771 10.667-10.667 10.667s-10.667-4.771-10.667-10.667v-2.858l-2.479 1.431a10.679 10.679 0 0 1-14.573-3.906c-2.948-5.104-1.198-11.625 3.906-14.573l2.473-1.427-2.473-1.427c-5.104-2.948-6.854-9.469-3.906-14.573 2.938-5.104 9.458-6.854 14.573-3.906l2.479 1.431v-2.858c0-5.896 4.771-10.667 10.667-10.667s10.667 4.771 10.667 10.667v2.858l2.479-1.431c5.073-2.948 11.604-1.198 14.573 3.906 2.948 5.104 1.198 11.625-3.906 14.573l-2.473 1.427 2.473 1.427zm85.333 0c5.104 2.948 6.854 9.469 3.906 14.573a10.678 10.678 0 0 1-14.573 3.906L256 221.142V224a10.66 10.66 0 0 1-10.667 10.667A10.66 10.66 0 0 1 234.666 224v-2.858l-2.479 1.431a10.679 10.679 0 0 1-14.573-3.906c-2.948-5.104-1.198-11.625 3.906-14.573l2.473-1.427-2.473-1.427c-5.104-2.948-6.854-9.469-3.906-14.573 2.938-5.104 9.469-6.854 14.573-3.906l2.479 1.431v-2.858a10.66 10.66 0 0 1 10.667-10.667A10.66 10.66 0 0 1 256 181.334v2.858l2.479-1.431c5.083-2.948 11.615-1.198 14.573 3.906 2.948 5.104 1.198 11.625-3.906 14.573l-2.473 1.427 2.473 1.427z" fill="#b1b1b1" opacity="1" data-original="#000000" className=""></path><path d="M490.667 256v-10.667c0-41.167-33.5-74.667-74.667-74.667s-74.667 33.5-74.667 74.667V256c-11.76 0-21.333 9.573-21.333 21.333V384c0 11.76 9.573 21.333 21.333 21.333h149.333c11.76 0 21.333-9.573 21.333-21.333V277.333C512 265.573 502.427 256 490.667 256zm-64 82.053V352A10.66 10.66 0 0 1 416 362.667 10.66 10.66 0 0 1 405.333 352v-13.947c-6.258-3.724-10.667-10.262-10.667-18.053 0-11.76 9.573-21.333 21.333-21.333 11.76 0 21.333 9.573 21.333 21.333.001 7.792-4.408 14.329-10.665 18.053zM448 256h-64v-10.667c0-17.646 14.354-32 32-32s32 14.354 32 32V256z" fill="#b1b1b1" opacity="1" data-original="#000000" className=""></path></g></svg>