<svg xmlns="http://www.w3.org/2000/svg" version="1.1" xmlns:xlink="http://www.w3.org/1999/xlink" width="512" height="512" x="0" y="0" viewBox="0 0 512 512" style="enable-background:new 0 0 512 512" xml:space="preserve" className=""><g><path d="M131.187 19.652c-32.212 0-58.423 25.972-58.423 57.775L70.64 376.979l31.867.228 2.125-299.663c0-14.351 11.913-26.025 26.556-26.025h320.266V19.652H131.187z" fill="#ffffff" opacity="1" data-original="#000000" className=""></path><path d="M451.452 19.652c-33.386 0-60.548 27.161-60.548 60.548v336.199c0 24.304-19.779 44.083-44.083 44.083s-44.083-19.779-44.083-44.083v-38.772c0-8.801-7.133-15.934-15.934-15.934H15.934C7.133 361.693 0 368.826 0 377.627v38.772c0 41.879 34.071 75.95 75.95 75.95v-31.867c-24.309 0-44.083-19.779-44.083-44.083V393.56h239.004v22.838c0 41.879 34.071 75.95 75.95 75.95 41.879 0 75.95-34.071 75.95-75.95V167.303h73.295c8.801 0 15.934-7.133 15.934-15.934v-71.17c0-33.386-27.161-60.547-60.548-60.547zm28.681 115.784h-57.361V80.199c0-15.817 12.869-28.68 28.68-28.68s28.68 12.864 28.68 28.68v55.237z" fill="#ffffff" opacity="1" data-original="#000000" className=""></path><path d="M72.763 460.481h270.335v31.867H72.763zM236.88 108.349h-82.324c-8.801 0-15.934 7.133-15.934 15.934s7.133 15.934 15.934 15.934h82.324c8.801 0 15.934-7.133 15.934-15.934s-7.134-15.934-15.934-15.934zM332.481 172.083H154.556c-8.801 0-15.934 7.133-15.934 15.934s7.133 15.934 15.934 15.934h177.925c8.801 0 15.934-7.133 15.934-15.934s-7.133-15.934-15.934-15.934zM332.481 235.817H154.556c-8.801 0-15.934 7.133-15.934 15.934 0 8.801 7.133 15.934 15.934 15.934h177.925c8.801 0 15.934-7.128 15.934-15.934 0-8.801-7.133-15.934-15.934-15.934zM332.481 299.552H154.556c-8.801 0-15.934 7.133-15.934 15.934s7.133 15.934 15.934 15.934h177.925c8.801 0 15.934-7.133 15.934-15.934s-7.133-15.934-15.934-15.934z" fill="#ffffff" opacity="1" data-original="#000000" className=""></path></g></svg>