<svg xmlns="http://www.w3.org/2000/svg" version="1.1" xmlns:xlink="http://www.w3.org/1999/xlink" width="512" height="512" x="0" y="0" viewBox="0 0 24 24" style="enable-background:new 0 0 512 512" xml:space="preserve" className=""><g><path d="M21.25 4H16v-.25C16 2.785 15.215 2 14.25 2h-4.5C8.785 2 8 2.785 8 3.75V4H2.75A2.752 2.752 0 0 0 0 6.75v12.5A2.752 2.752 0 0 0 2.75 22h18.5A2.752 2.752 0 0 0 24 19.25V6.75A2.752 2.752 0 0 0 21.25 4zm-7.249 2H10V4h4zM7.5 9c1.378 0 2.5 1.122 2.5 2.5S8.878 14 7.5 14 5 12.878 5 11.5 6.122 9 7.5 9zm4.5 9.25a.75.75 0 0 1-.75.75h-7.5a.75.75 0 0 1-.75-.75v-.5A2.752 2.752 0 0 1 5.75 15h3.5A2.752 2.752 0 0 1 12 17.75zm8.25.75h-5.5a.75.75 0 0 1 0-1.5h5.5a.75.75 0 0 1 0 1.5zm0-4h-5.5a.75.75 0 0 1 0-1.5h5.5a.75.75 0 0 1 0 1.5zm0-4h-5.5a.75.75 0 0 1 0-1.5h5.5a.75.75 0 0 1 0 1.5z" fill="#b1b1b1" opacity="1" data-original="#000000" className=""></path></g></svg>