<svg xmlns="http://www.w3.org/2000/svg" version="1.1" xmlns:xlink="http://www.w3.org/1999/xlink" width="512" height="512" x="0" y="0" viewBox="0 0 512 512" style="enable-background:new 0 0 512 512" xml:space="preserve" className=""><g><path d="M498.359 110.399h-21.355c-9.603 0-18.57 4.286-24.604 11.759l-25.094 31.087a14.03 14.03 0 0 0-4.486-.744h-12.624v-28.499a7.295 7.295 0 0 0-7.296-7.296c-4.673-.038-7.832 4.232-7.296 8.708h-14.798V17.025C380.806 7.637 373.168 0 363.781 0h-66.003a7.296 7.296 0 1 0 0 14.592h66.003a2.435 2.435 0 0 1 2.432 2.432v108.389H132.155V17.025a2.435 2.435 0 0 1 2.432-2.432h129.652a7.297 7.297 0 0 0 0-14.593H134.587c-9.387 0-17.025 7.637-17.025 17.025v108.389h-14.537c.536-4.476-2.624-8.746-7.296-8.708a7.296 7.296 0 0 0-7.296 7.296v28.499H75.808c-7.778 0-14.106 6.328-14.106 14.106v15.255h-9.015v-15.255c0-7.778-6.328-14.106-14.106-14.106h-18.13c-7.778 0-14.106 6.328-14.106 14.106v45.103c0 7.778 6.328 14.106 14.106 14.106h18.13c4.419 0 8.366-2.046 10.955-5.237a30.68 30.68 0 0 0-.263 3.952v24.176a67.478 67.478 0 0 1-3.439 21.286l-27.782 83.755a104.42 104.42 0 0 0-5.318 32.925v103.438c0 12.07 9.819 21.889 21.889 21.889h81.016a7.296 7.296 0 1 0 0-14.592H34.623c-4.023 0-7.296-3.273-7.296-7.296v-28.593h443.975v28.593c0 4.023-3.273 7.296-7.296 7.296H149.797a7.296 7.296 0 1 0 0 14.592h314.209c12.069 0 21.889-9.819 21.889-21.889V386.673c0-11.209-1.789-22.286-5.318-32.925l-12.002-36.18a7.296 7.296 0 0 0-13.85 4.594l12.002 36.181a89.84 89.84 0 0 1 4.575 28.331v60.253H27.326v-60.253c0-9.645 1.54-19.177 4.576-28.331l27.782-83.755a82.064 82.064 0 0 0 4.181-25.881v-24.176c0-8.851 7.201-16.052 16.052-16.052h147.68v11.312h-76.581a10.182 10.182 0 0 0-9.448 6.33 10.189 10.189 0 0 0 2.258 11.151c28.256 27.992 65.719 43.407 105.489 43.407 39.768 0 77.231-15.416 105.489-43.408a10.186 10.186 0 0 0 2.256-11.151 10.183 10.183 0 0 0-9.447-6.329h-76.581V193.29c0-6.705-5.455-12.16-12.16-12.16h-19.114c-6.705 0-12.16 5.455-12.16 12.16v.596h-95.442v-53.881h234.059v53.881H296.95a7.296 7.296 0 1 0 0 14.592h121.762c8.85 0 16.052 7.201 16.052 16.052v24.176c0 8.81 1.407 17.518 4.18 25.881l5.917 17.836c1.26 3.861 5.5 5.893 9.222 4.628a7.296 7.296 0 0 0 4.628-9.222l-5.916-17.836a67.51 67.51 0 0 1-3.438-21.286v-24.176c0-1.34-.096-2.657-.263-3.951 2.588 3.19 6.535 5.236 10.954 5.236h18.13c7.778 0 14.106-6.328 14.106-14.106v-45.103c0-7.778-6.328-14.106-14.106-14.106h-18.13c-7.778 0-14.106 6.328-14.106 14.106v15.255h-9.015v-15.255c0-.637-.057-1.26-.139-1.875l26.968-33.409a16.953 16.953 0 0 1 13.249-6.332h21.355a7.296 7.296 0 1 0-.001-14.592zM38.095 211.223H20.937v-44.13h17.157v44.13zm235.026 23.161c-6.387 5.83-14.781 9.196-23.806 9.196s-17.419-3.365-23.807-9.196zm-23.807 31.703c-32.181 0-62.69-11.184-87.038-31.703h44.475c9.062 14.78 24.977 23.788 42.563 23.788 17.585 0 33.5-9.008 42.563-23.788h44.475c-24.348 20.52-54.857 31.703-87.038 31.703zm7.125-70.365v24.069h-14.25v-24.069zM52.687 210.5v-14.045h9.015v3.45a30.857 30.857 0 0 0-9.015 10.595zm27.229-16.613c-1.226 0-2.433.081-3.622.221v-27.015h41.267v26.793H79.916zm37.646-41.386h-14.537v-12.495h14.537zm342.971 14.592h17.158v44.13h-17.158zm-64.93-27.087v12.495h-14.311c-.164 0-.325.014-.486.025v-12.52zm-14.797 53.881v-26.818c.161.011.322.025.486.025h41.041v27.015a30.722 30.722 0 0 0-3.622-.221h-37.905zm65.135 2.567v14.044a30.843 30.843 0 0 0-9.015-10.594v-3.45z" fill="#b1b1b1" opacity="1" data-original="#b1b1b1" className=""></path><path d="M57.969 359.093c0 13.004 10.579 23.583 23.583 23.583s23.583-10.579 23.583-23.583-10.58-23.583-23.583-23.583-23.583 10.58-23.583 23.583zm32.573 0c0 4.957-4.033 8.99-8.99 8.99s-8.99-4.033-8.99-8.99 4.033-8.99 8.99-8.99 8.99 4.033 8.99 8.99zM137.473 382.676c13.004 0 23.583-10.579 23.583-23.583s-10.579-23.583-23.583-23.583-23.583 10.579-23.583 23.583 10.579 23.583 23.583 23.583zm0-32.573c4.957 0 8.99 4.033 8.99 8.99s-4.033 8.99-8.99 8.99-8.99-4.033-8.99-8.99c-.001-4.957 4.032-8.99 8.99-8.99zM169.811 359.093c0 13.004 10.579 23.583 23.583 23.583s23.583-10.579 23.583-23.583-10.579-23.583-23.583-23.583-23.583 10.58-23.583 23.583zm32.572 0c0 4.957-4.033 8.99-8.99 8.99s-8.99-4.033-8.99-8.99 4.033-8.99 8.99-8.99 8.99 4.033 8.99 8.99zM225.731 359.093c0 13.004 10.58 23.583 23.583 23.583s23.582-10.579 23.582-23.583-10.579-23.583-23.582-23.583-23.583 10.58-23.583 23.583zm32.573 0c0 4.957-4.033 8.99-8.99 8.99s-8.991-4.033-8.991-8.99 4.033-8.99 8.991-8.99c4.957 0 8.99 4.033 8.99 8.99zM281.652 359.093c0 13.004 10.58 23.583 23.583 23.583s23.583-10.579 23.583-23.583-10.58-23.583-23.583-23.583-23.583 10.58-23.583 23.583zm32.573 0c0 4.957-4.033 8.99-8.99 8.99s-8.99-4.033-8.99-8.99 4.033-8.99 8.99-8.99 8.99 4.033 8.99 8.99zM384.739 359.093c0-13.004-10.58-23.583-23.583-23.583-13.004 0-23.584 10.579-23.584 23.583s10.58 23.583 23.584 23.583c13.003 0 23.583-10.579 23.583-23.583zm-23.583 8.99c-4.957 0-8.991-4.033-8.991-8.99s4.034-8.99 8.991-8.99 8.99 4.033 8.99 8.99-4.032 8.99-8.99 8.99zM417.077 382.676c13.003 0 23.583-10.579 23.583-23.583s-10.58-23.583-23.583-23.583-23.583 10.579-23.583 23.583 10.58 23.583 23.583 23.583zm0-32.573c4.957 0 8.99 4.033 8.99 8.99s-4.033 8.99-8.99 8.99-8.99-4.033-8.99-8.99 4.032-8.99 8.99-8.99zM133.095 311.426c0-13.004-10.579-23.583-23.583-23.583S85.93 298.422 85.93 311.426s10.579 23.583 23.583 23.583 23.582-10.58 23.582-23.583zm-32.573 0c0-4.957 4.033-8.99 8.99-8.99s8.99 4.033 8.99 8.99-4.033 8.99-8.99 8.99-8.99-4.033-8.99-8.99zM165.433 287.843c-13.004 0-23.583 10.579-23.583 23.583s10.579 23.583 23.583 23.583 23.583-10.579 23.583-23.583c-.001-13.004-10.58-23.583-23.583-23.583zm0 32.573c-4.957 0-8.99-4.033-8.99-8.99s4.033-8.99 8.99-8.99 8.99 4.033 8.99 8.99-4.033 8.99-8.99 8.99zM221.354 287.843c-13.004 0-23.583 10.579-23.583 23.583s10.579 23.583 23.583 23.583 23.583-10.579 23.583-23.583-10.58-23.583-23.583-23.583zm0 32.573c-4.957 0-8.99-4.033-8.99-8.99s4.033-8.99 8.99-8.99 8.991 4.033 8.991 8.99c-.001 4.957-4.034 8.99-8.991 8.99zM277.274 287.843c-13.003 0-23.583 10.579-23.583 23.583s10.58 23.583 23.583 23.583 23.583-10.579 23.583-23.583-10.58-23.583-23.583-23.583zm0 32.573c-4.957 0-8.99-4.033-8.99-8.99s4.033-8.99 8.99-8.99 8.99 4.033 8.99 8.99-4.032 8.99-8.99 8.99zM356.779 311.426c0-13.004-10.58-23.583-23.584-23.583-13.003 0-23.583 10.579-23.583 23.583s10.58 23.583 23.583 23.583c13.004-.001 23.584-10.58 23.584-23.583zm-32.574 0c0-4.957 4.033-8.99 8.99-8.99s8.991 4.033 8.991 8.99-4.034 8.99-8.991 8.99-8.99-4.033-8.99-8.99zM412.699 311.426c0-13.004-10.58-23.583-23.583-23.583s-23.583 10.579-23.583 23.583 10.58 23.583 23.583 23.583c13.004-.001 23.583-10.58 23.583-23.583zm-32.573 0c0-4.957 4.033-8.99 8.99-8.99s8.99 4.033 8.99 8.99-4.033 8.99-8.99 8.99-8.99-4.033-8.99-8.99zM156.678 438.017H341.95c12.597 0 22.845-10.248 22.845-22.846s-10.248-22.846-22.845-22.846H156.678c-12.597 0-22.846 10.248-22.846 22.846s10.249 22.846 22.846 22.846zm0-31.099H341.95c4.551 0 8.253 3.702 8.253 8.253s-3.702 8.253-8.253 8.253H156.678c-4.551 0-8.253-3.702-8.253-8.253s3.702-8.253 8.253-8.253zM330.763 53.195a7.295 7.295 0 0 0-7.296-7.296H173.382a7.296 7.296 0 1 0 0 14.592h150.084a7.296 7.296 0 0 0 7.297-7.296zM173.382 82.247a7.296 7.296 0 1 0 0 14.592h28.199a7.296 7.296 0 1 0 0-14.592z" fill="#b1b1b1" opacity="1" data-original="#b1b1b1" className=""></path></g></svg>