<svg xmlns="http://www.w3.org/2000/svg" version="1.1" xmlns:xlink="http://www.w3.org/1999/xlink" width="512" height="512" x="0" y="0" viewBox="0 0 64 64" style="enable-background:new 0 0 512 512" xml:space="preserve" className=""><g><path fill="#514a92" d="m56.013 28.465 2.019.505c1.388-2.62 2.018-5.717 2.23-8.706l-2.25-1.799 2.335-.934c-.019-4.986-.956-9.066-.956-9.066-4.68 2.06-8.027 4.294-10.378 6.566v2.434l-1 1v3l-2.717-1.358c-3.786 8.1 2.095 15.358 2.095 15.358 4.657-.259 7.698-2.198 9.662-4.92l-1.04-2.08z" opacity="1" data-original="#f2be22" className=""></path><path fill="#b1b1b1" d="M58.513 49.465h-3.527c.217-.04.778-8.419.842-8.75.18-1.696-1.285-3.286-2.99-3.25h-4.284c.437-2.56 1.861-9.113 5.65-14.419a1 1 0 1 0-1.626-1.162c-4.235 5.928-5.668 13.107-6.056 15.581h-1.336c-1.704-.036-3.168 1.554-2.989 3.25.071.356.612 8.677.842 8.75h-5.136c.353-7.446-5.208-13.897-12.5-14.65v-.765c5.866-1.468 10.23-6.769 10.23-13.084-.741-17.911-26.262-17.905-27.001 0 0 6.315 4.364 11.616 10.23 13.084v.765c-7.204.622-12.98 7.426-12.5 14.65-5.223-.591-6.01 6.612-.85 7h53c4.607-.14 4.641-6.849 0-7zM10.632 20.966c0-6.342 5.159-11.501 11.5-11.501 15.235.629 15.265 22.325.04 23-6.351.024-11.543-5.143-11.54-11.499zm11.5 13.501c.04-.002 1.27-.002 1.27-.002-.027 1.329.353 2.745-1.54 2.55a.993.993 0 0 1-1-1v-1.55s1.232 0 1.27.002zM8.363 48.735c-.12-5.93 4.727-11.359 10.61-11.92 0 .03.01.05.01.07l-2.4 6.4c-.13.36-.06.76.2 1.04l4.5 4.82c.383.41 1.087.432 1.46 0l4.53-4.82c.26-.28.34-.68.21-1.04l-2.3-6.13c.04-.11.08-.22.11-.34 6.246.696 10.954 6.276 10.61 12.65H8.363v-.73zm50.15 5.73h-53c-1.957-.03-1.982-2.964 0-3 13.414.157 39.71-.05 53 0 1.95.028 1.99 2.963 0 3z" opacity="1" data-original="#0e5952" className=""></path></g></svg>