<svg xmlns="http://www.w3.org/2000/svg" version="1.1" xmlns:xlink="http://www.w3.org/1999/xlink" width="512" height="512" x="0" y="0" viewBox="0 0 682.667 682.667" style="enable-background:new 0 0 512 512" xml:space="preserve" className=""><g><defs><clipPath id="a" clipPathUnits="userSpaceOnUse"><path d="M0 512h512V0H0Z" fill="#b1b1b1" opacity="1" data-original="#000000"></path></clipPath></defs><g clip-path="url(#a)" transform="matrix(1.33333 0 0 -1.33333 0 682.667)"><path d="M0 0v30c0 26.17-16.76 48.43-40.13 56.63C-50.89 70.57-69.21 60-90 60c-13.51 0-25.97 4.46-36 12-5.47-7.29-14.19-12-24-12-16.57 0-30 13.43-30 30-16.57 0-30-13.43-30-30v-77.57c0-7.96 3.16-15.59 8.79-21.22L-180-60l24.32-97.28c3.34-13.35 15.34-22.72 29.1-22.72h74.96c8.34 0 16.08 3.45 21.62 9.2 3.03 3.14 5.4 6.97 6.84 11.31L0-90Z" style="stroke-width:20;stroke-linecap:round;stroke-linejoin:round;stroke-miterlimit:10;stroke-dasharray:none;stroke-opacity:1" transform="translate(376 322)" fill="none" stroke="#b1b1b1" stroke-width="20" stroke-linecap="round" stroke-linejoin="round" stroke-miterlimit="10" stroke-dasharray="none" stroke-opacity="" data-original="#000000" opacity="1" className=""></path><path d="M0 0h-18.38C-35.46 0-48.35-13.96-48.4-29.87c-.01-3.16.49-6.4 1.56-9.62l3.16-9.48C-36.94-69.18-20.17-83.96 0-88.52 4.28-89.49 8.72-90 13.25-90H37.5" style="stroke-width:20;stroke-linecap:round;stroke-linejoin:round;stroke-miterlimit:10;stroke-dasharray:none;stroke-opacity:1" transform="translate(166 322)" fill="none" stroke="#b1b1b1" stroke-width="20" stroke-linecap="round" stroke-linejoin="round" stroke-miterlimit="10" stroke-dasharray="none" stroke-opacity="" data-original="#000000" opacity="1" className=""></path><path d="M0 0v-31.48c0-12.321 3.71-23.77 10.07-33.291C20.83-80.87 39.18-91.48 60-91.48h23.42" style="stroke-width:20;stroke-linecap:round;stroke-linejoin:round;stroke-miterlimit:10;stroke-dasharray:none;stroke-opacity:1" transform="translate(166 233.48)" fill="none" stroke="#b1b1b1" stroke-width="20" stroke-linecap="round" stroke-linejoin="round" stroke-miterlimit="10" stroke-dasharray="none" stroke-opacity="" data-original="#000000" opacity="1" className=""></path><path d="M0 0c-23.26 1.73-41.6 21.16-41.6 44.87 0 22.58 16.63 41.28 38.321 44.51-7.471 12.63-10.441 28.23-6.71 44.61 4.939 21.65 22.769 39.42 44.429 44.31 19.831 4.46 38.51-.89 52.14-12.14 14.231 25.8 45.511 43.71 81.82 43.71 29.491 0 55.68-11.82 72.09-30.09.96.06 1.93.09 2.91.09 31.83 0 53.5-32.18 41.85-61.58 19.101-5.2 33.15-22.67 33.15-43.42 0-11.37-4.219-21.75-11.17-29.67l-7.469-29.88C294.5-5.75 278.45-21.86 258.4-27.72" style="stroke-width:20;stroke-linecap:round;stroke-linejoin:round;stroke-miterlimit:10;stroke-dasharray:none;stroke-opacity:1" transform="translate(117.6 292.13)" fill="none" stroke="#b1b1b1" stroke-width="20" stroke-linecap="round" stroke-linejoin="round" stroke-miterlimit="10" stroke-dasharray="none" stroke-opacity="" data-original="#000000" opacity="1" className=""></path><path d="M0 0h-30c-16.57 0-30-13.43-30-30v-60h-30" style="stroke-width:20;stroke-linecap:round;stroke-linejoin:round;stroke-miterlimit:10;stroke-dasharray:none;stroke-opacity:1" transform="translate(376 322)" fill="none" stroke="#b1b1b1" stroke-width="20" stroke-linecap="round" stroke-linejoin="round" stroke-miterlimit="10" stroke-dasharray="none" stroke-opacity="" data-original="#000000" opacity="1" className=""></path><path d="M0 0h30" style="stroke-width:20;stroke-linecap:round;stroke-linejoin:round;stroke-miterlimit:10;stroke-dasharray:none;stroke-opacity:1" transform="translate(226 322)" fill="none" stroke="#b1b1b1" stroke-width="20" stroke-linecap="round" stroke-linejoin="round" stroke-miterlimit="10" stroke-dasharray="none" stroke-opacity="" data-original="#000000" opacity="1" className=""></path><path d="M0 0v-22.29c0-31.83 12.64-62.35 35.15-84.86L60-132l24.85 24.85A119.999 119.999 0 0 1 120-22.29V9.2" style="stroke-width:20;stroke-linecap:round;stroke-linejoin:round;stroke-miterlimit:10;stroke-dasharray:none;stroke-opacity:1" transform="translate(226 142)" fill="none" stroke="#b1b1b1" stroke-width="20" stroke-linecap="round" stroke-linejoin="round" stroke-miterlimit="10" stroke-dasharray="none" stroke-opacity="" data-original="#000000" opacity="1" className=""></path><path d="M0 0c0-5.522-4.478-10-10-10S-20-5.522-20 0s4.478 10 10 10S0 5.522 0 0" style="fill-opacity:1;fill-rule:nonzero;stroke:none" transform="translate(429 83)" fill="#b1b1b1" data-original="#000000" opacity="1"></path><path d="m0 0-40.07-26.71-30-132 90 30 90-30 90 30 60-30-6.638 29.204" style="stroke-width:20;stroke-linecap:round;stroke-linejoin:round;stroke-miterlimit:10;stroke-dasharray:none;stroke-opacity:1" transform="translate(176.07 168.71)" fill="none" stroke="#b1b1b1" stroke-width="20" stroke-linecap="round" stroke-linejoin="round" stroke-miterlimit="10" stroke-dasharray="none" stroke-opacity="" data-original="#000000" opacity="1" className=""></path><path d="m0 0-3.415 15.027-49.09 32.731" style="stroke-width:20;stroke-linecap:round;stroke-linejoin:round;stroke-miterlimit:10;stroke-dasharray:none;stroke-opacity:1" transform="translate(409.415 126.973)" fill="none" stroke="#b1b1b1" stroke-width="20" stroke-linecap="round" stroke-linejoin="round" stroke-miterlimit="10" stroke-dasharray="none" stroke-opacity="" data-original="#000000" opacity="1" className=""></path></g></g></svg>